<?xml version="1.0" encoding="utf-8"?>
<!-- Generator: Adobe Illustrator 23.1.0, SVG Export Plug-In . SVG Version: 6.00 Build 0)  -->
<svg version="1.1" id="レイヤー_1" xmlns="http://www.w3.org/2000/svg" xmlns:xlink="http://www.w3.org/1999/xlink" x="0px"
	 y="0px" viewBox="0 0 26 28" style="enable-background:new 0 0 26 28;" xml:space="preserve">
<style type="text/css">
	.st0{fill:#E5E5E5;}
</style>
<title>th-large</title>
<path class="st0" d="M12.1,16.7v5.4c0,1-0.8,1.8-1.8,1.8H3.1c-1,0-1.8-0.8-1.8-1.8v-5.4c0-1,0.8-1.8,1.8-1.8h7.2
	C11.3,14.9,12.1,15.7,12.1,16.7z M12.1,5.9v5.4c0,1-0.8,1.8-1.8,1.8H3.1c-1,0-1.8-0.8-1.8-1.8V5.9c0-1,0.8-1.8,1.8-1.8h7.2
	C11.3,4.1,12.1,4.9,12.1,5.9z M24.7,16.7v5.4c0,1-0.8,1.8-1.8,1.8h-7.2c-1,0-1.8-0.8-1.8-1.8v-5.4c0-1,0.8-1.8,1.8-1.8h7.2
	C23.9,14.9,24.7,15.7,24.7,16.7z M24.7,5.9v5.4c0,1-0.8,1.8-1.8,1.8h-7.2c-1,0-1.8-0.8-1.8-1.8V5.9c0-1,0.8-1.8,1.8-1.8h7.2
	C23.9,4.1,24.7,4.9,24.7,5.9z"/>
</svg>
