<?xml version="1.0" encoding="utf-8"?>
<!-- Generator: Adobe Illustrator 23.0.3, SVG Export Plug-In . SVG Version: 6.00 Build 0)  -->
<svg version="1.1" id="レイヤー_1" xmlns="http://www.w3.org/2000/svg" xmlns:xlink="http://www.w3.org/1999/xlink" x="0px"
	 y="0px" viewBox="0 0 16 16" style="enable-background:new 0 0 16 16;" xml:space="preserve">
<style type="text/css">
	.st0{fill:#969696;}
</style>
<title>search</title>
<path class="st0" d="M11.4,7.4c0-2.2-1.8-4-4-4s-4,1.8-4,4s1.8,4,4,4S11.4,9.6,11.4,7.4z M16,14.9c0,0.6-0.5,1.1-1.1,1.1
	c-0.3,0-0.6-0.1-0.8-0.3L11,12.6c-1,0.7-2.3,1.1-3.6,1.1c-3.5,0-6.3-2.8-6.3-6.3S4,1.1,7.4,1.1s6.3,2.8,6.3,6.3
	c0,1.3-0.4,2.5-1.1,3.6l3.1,3.1C15.9,14.3,16,14.6,16,14.9L16,14.9z"/>
</svg>
